<?xml version="1.0" encoding="UTF-8" standalone="no"?>
<!-- Created with Inkscape (http://www.inkscape.org/) -->

<svg
   xmlns:dc="http://purl.org/dc/elements/1.1/"
   xmlns:cc="http://creativecommons.org/ns#"
   xmlns:rdf="http://www.w3.org/1999/02/22-rdf-syntax-ns#"
   xmlns:svg="http://www.w3.org/2000/svg"
   xmlns="http://www.w3.org/2000/svg"
   xmlns:sodipodi="http://sodipodi.sourceforge.net/DTD/sodipodi-0.dtd"
   xmlns:inkscape="http://www.inkscape.org/namespaces/inkscape"
   version="1.1"
   id="svg4518"
   xml:space="preserve"
   width="880.83173"
   height="742.09369"
   viewBox="0 0 880.83173 742.09369"
   sodipodi:docname="logo.svg"
   inkscape:version="0.92.4 (5da689c313, 2019-01-14)"><metadata
     id="metadata4524"><rdf:RDF><cc:Work
         rdf:about=""><dc:format>image/svg+xml</dc:format><dc:type
           rdf:resource="http://purl.org/dc/dcmitype/StillImage" /><dc:title></dc:title></cc:Work></rdf:RDF></metadata><defs
     id="defs4522"><clipPath
       clipPathUnits="userSpaceOnUse"
       id="clipPath4534"><path
         d="M 0,1080 H 1080 V 0 H 0 Z"
         id="path4532"
         inkscape:connector-curvature="0" /></clipPath></defs><sodipodi:namedview
     pagecolor="#ffffff"
     bordercolor="#666666"
     borderopacity="1"
     objecttolerance="10"
     gridtolerance="10"
     guidetolerance="10"
     inkscape:pageopacity="0"
     inkscape:pageshadow="2"
     inkscape:window-width="2736"
     inkscape:window-height="1683"
     id="namedview4520"
     showgrid="false"
     inkscape:zoom="0.92013889"
     inkscape:cx="46.554443"
     inkscape:cy="380.07734"
     inkscape:window-x="-14"
     inkscape:window-y="-14"
     inkscape:window-maximized="1"
     inkscape:current-layer="g4526"
     fit-margin-top="60"
     fit-margin-right="60"
     fit-margin-left="60"
     fit-margin-bottom="60"
     inkscape:pagecheckerboard="false" /><g
     id="g4526"
     inkscape:groupmode="layer"
     inkscape:label="Ultimate Plumber logo"
     transform="matrix(1.3333333,0,0,-1.3333333,-284.98692,1077.6777)"><g
       id="g4528"><g
         id="g4530"
         clip-path="url(#clipPath4534)"><g
           id="g4536"
           transform="translate(417.1602,530.2305)"><path
             d="m 0,0 c -1.276,-2.28 -2.893,-4.421 -4.881,-6.408 -5.552,-5.549 -12.233,-8.322 -20.051,-8.322 -7.819,0 -14.503,2.773 -20.049,8.322 -1.99,1.987 -3.607,4.128 -4.883,6.408 h -97.319 c 2.838,-28.108 14.602,-52.538 35.338,-73.271 24.021,-24.024 52.991,-36.034 86.913,-36.034 33.921,0 62.893,12.01 86.914,36.034 20.736,20.733 32.5,45.163 35.338,73.271 z"
             style="fill:#53ade1;fill-opacity:1;fill-rule:nonzero;stroke:none"
             id="path4538"
             inkscape:connector-curvature="0" /></g><g
           id="g4540"
           transform="translate(369.5962,741.9883)"><path
             d="m 0,0 h -106.606 c -2.348,0 -4.25,1.903 -4.25,4.25 v 12.77 c 0,2.347 1.902,4.25 4.25,4.25 H 0 c 2.347,0 4.25,-1.903 4.25,-4.25 V 4.25 C 4.25,1.903 2.347,0 0,0"
             style="fill:#2d4982;fill-opacity:1;fill-rule:nonzero;stroke:none"
             id="path4542"
             inkscape:connector-curvature="0" /></g><g
           id="g4544"
           transform="translate(369.5962,535.5479)"><path
             d="m 0,0 h -106.606 c -2.348,0 -4.25,1.902 -4.25,4.25 v 12.77 c 0,2.347 1.902,4.25 4.25,4.25 H 0 c 2.347,0 4.25,-1.903 4.25,-4.25 V 4.25 C 4.25,1.902 2.347,0 0,0"
             style="fill:#2d4982;fill-opacity:1;fill-rule:nonzero;stroke:none"
             id="path4546"
             inkscape:connector-curvature="0" /></g><g
           id="g4548"
           transform="translate(521.9243,535.5479)"><path
             d="m 0,0 h -107.232 c -2.347,0 -4.25,1.902 -4.25,4.25 v 12.77 c 0,2.347 1.903,4.25 4.25,4.25 H 0 c 2.347,0 4.25,-1.903 4.25,-4.25 V 4.25 C 4.25,1.902 2.347,0 0,0"
             style="fill:#2d4982;fill-opacity:1;fill-rule:nonzero;stroke:none"
             id="path4550"
             inkscape:connector-curvature="0" /></g><g
           id="g4552"
           transform="translate(660.9072,417.7979)"><path
             d="m 0,0 h -100.351 c -2.347,0 -4.25,1.902 -4.25,4.25 v 12.77 c 0,2.346 1.903,4.25 4.25,4.25 H 0 c 2.347,0 4.25,-1.904 4.25,-4.25 V 4.25 C 4.25,1.902 2.347,0 0,0"
             style="fill:#2d4982;fill-opacity:1;fill-rule:nonzero;stroke:none"
             id="path4554"
             inkscape:connector-curvature="0" /></g><g
           id="g4556"
           transform="translate(538.1646,648.3354)"><path
             d="m 0,0 v 107.232 c 0,2.347 1.903,4.25 4.25,4.25 h 12.77 c 2.347,0 4.25,-1.903 4.25,-4.25 V 0 c 0,-2.347 -1.903,-4.25 -4.25,-4.25 H 4.25 C 1.903,-4.25 0,-2.347 0,0"
             style="fill:#2d4982;fill-opacity:1;fill-rule:nonzero;stroke:none"
             id="path4558"
             inkscape:connector-curvature="0" /></g><path
           d="M 363.855,736.671 H 269.28 V 562.135 h 94.575 z"
           style="fill:#53ade1;fill-opacity:1;fill-rule:nonzero;stroke:none"
           id="path4560"
           inkscape:connector-curvature="0" /><g
           id="g4562"
           transform="translate(532.8472,749.9863)"><path
             d="m 0,0 h -17.67 -0.151 c -52.232,0 -94.575,-42.342 -94.575,-94.574 v -0.001 h 0.151 v -93.277 h 94.575 v 68.589 c 0,11.195 7.456,20.637 17.67,23.662 z"
             style="fill:#53ade1;fill-opacity:1;fill-rule:nonzero;stroke:none"
             id="path4564"
             inkscape:connector-curvature="0" /></g><g
           id="g4566"
           transform="translate(664.4531,648.3354)"><path
             d="m 0,0 v 107.232 c 0,2.347 1.902,4.25 4.25,4.25 h 12.77 c 2.347,0 4.25,-1.903 4.25,-4.25 V 0 c 0,-2.347 -1.903,-4.25 -4.25,-4.25 H 4.25 C 1.902,-4.25 0,-2.347 0,0"
             style="fill:#2d4982;fill-opacity:1;fill-rule:nonzero;stroke:none"
             id="path4568"
             inkscape:connector-curvature="0" /></g><g
           id="g4570"
           transform="translate(664.4531,510.3955)"><path
             d="m 0,0 v 107.232 c 0,2.347 1.902,4.25 4.25,4.25 h 12.77 c 2.347,0 4.25,-1.903 4.25,-4.25 V 0 c 0,-2.347 -1.903,-4.25 -4.25,-4.25 H 4.25 C 1.902,-4.25 0,-2.347 0,0"
             style="fill:#2d4982;fill-opacity:1;fill-rule:nonzero;stroke:none"
             id="path4572"
             inkscape:connector-curvature="0" /></g><g
           id="g4574"
           transform="translate(659.1357,749.9863)"><path
             d="m 0,0 h -94.384 l -0.198,-305.602 h 94.574 v 212.24 H 0 Z"
             style="fill:#53ade1;fill-opacity:1;fill-rule:nonzero;stroke:none"
             id="path4576"
             inkscape:connector-curvature="0" /></g><g
           id="g4578"
           transform="translate(725.332,749.9863)"><path
             d="m 0,0 v 0 h -34.292 v -93.362 h 19.011 c 14.332,0 25.951,-11.619 25.951,-25.951 0,-14.333 -11.619,-25.952 -25.951,-25.952 h -19.011 v -93.362 H 0 c 57.455,0 104.032,46.577 104.032,104.032 v 30.562 C 104.032,-46.577 57.455,0 0,0"
             style="fill:#53ade1;fill-opacity:1;fill-rule:nonzero;stroke:none"
             id="path4580"
             inkscape:connector-curvature="0" /></g><g
           id="g4582"
           transform="translate(564.5537,411.124)"><path
             d="m 0,0 v -31.142 -24.717 -21.129 c 0,-5.713 4.631,-10.344 10.344,-10.344 5.713,0 10.343,4.631 10.343,10.344 v 16.275 c 0,2.681 2.173,4.854 4.855,4.854 2.681,0 4.854,-2.173 4.854,-4.854 v -6.636 c 0,-5.713 4.63,-10.343 10.343,-10.343 5.713,0 10.345,4.63 10.345,10.343 v 6.636 c 0,2.681 2.173,4.854 4.854,4.854 h 0.079 c 2.68,0 4.853,-2.173 4.853,-4.854 V -97.58 c 0,-9.309 7.547,-16.856 16.857,-16.856 9.308,0 16.855,7.547 16.855,16.856 V -55.859 -17.795 0 Z"
             style="fill:#53ade1;fill-opacity:1;fill-rule:nonzero;stroke:none"
             id="path4584"
             inkscape:connector-curvature="0" /></g><g
           id="g4586"
           transform="translate(597.957,306.2197)"><path
             d="m 0,0 v 0 c -4.011,4.011 -4.011,10.514 0,14.524 l 7.263,7.262 7.261,-7.262 C 18.535,10.514 18.535,4.011 14.524,0 10.514,-4.011 4.011,-4.011 0,0"
             style="fill:#53ade1;fill-opacity:1;fill-rule:nonzero;stroke:none"
             id="path4588"
             inkscape:connector-curvature="0" /></g></g></g></g></svg>